<?xml version="1.0" encoding="UTF-8" standalone="no"?>
<svg
   xmlns:dc="http://purl.org/dc/elements/1.1/"
   xmlns:cc="http://creativecommons.org/ns#"
   xmlns:rdf="http://www.w3.org/1999/02/22-rdf-syntax-ns#"
   xmlns:svg="http://www.w3.org/2000/svg"
   xmlns="http://www.w3.org/2000/svg"
   xmlns:sodipodi="http://sodipodi.sourceforge.net/DTD/sodipodi-0.dtd"
   xmlns:inkscape="http://www.inkscape.org/namespaces/inkscape"
   width="210mm"
   height="297mm"
   viewBox="0 0 210 297"
   version="1.1"
   id="svg8"
   inkscape:version="1.0.2-2 (e86c870879, 2021-01-15)"
   sodipodi:docname="çizim.svg">
  <defs
     id="defs2" />
  <sodipodi:namedview
     id="base"
     pagecolor="#ffffff"
     bordercolor="#666666"
     borderopacity="1.0"
     inkscape:pageopacity="0.0"
     inkscape:pageshadow="2"
     inkscape:zoom="0.49497475"
     inkscape:cx="588.67367"
     inkscape:cy="429.20549"
     inkscape:document-units="mm"
     inkscape:current-layer="layer1"
     inkscape:document-rotation="0"
     showgrid="false"
     inkscape:window-width="1285"
     inkscape:window-height="1040"
     inkscape:window-x="156"
     inkscape:window-y="0"
     inkscape:window-maximized="0" />
  <metadata
     id="metadata5">
    <rdf:RDF>
      <cc:Work
         rdf:about="">
        <dc:format>image/svg+xml</dc:format>
        <dc:type
           rdf:resource="http://purl.org/dc/dcmitype/StillImage" />
        <dc:title></dc:title>
      </cc:Work>
    </rdf:RDF>
  </metadata>
  <g
     inkscape:label="Katman 1"
     inkscape:groupmode="layer"
     id="layer1">
    <path
       style="fill:#d40000;stroke-width:0.377976"
       d="M 31.627126,53.435176 C 29.394323,50.393489 26.018808,47.48036 20.747167,44.045587 15.259251,40.469897 11.927943,37.447739 10.568254,34.81129 9.3754728,32.49848 9.1175742,27.862125 10.01012,24.77747 c 1.208562,-4.176818 4.475163,-9.532041 8.022401,-13.151821 1.774514,-1.8108003 3.294541,-3.2242124 3.377839,-3.1409163 0.0833,0.083299 -0.615872,1.4948059 -1.553712,3.1366833 -0.93784,1.641877 -1.706428,3.112796 -1.707974,3.268712 -0.0015,0.155914 1.145292,0.285145 2.548528,0.287174 4.347685,0.0063 8.409958,2.534243 10.757958,6.69467 0.619279,1.097301 1.26365,1.99509 1.431938,1.99509 0.168291,0 0.730242,-0.722878 1.248783,-1.606399 2.364661,-4.02903 6.060686,-6.440458 10.56281,-6.891575 1.403236,-0.140605 2.551337,-0.360855 2.551337,-0.489442 0,-0.128588 -0.861205,-1.748486 -1.913794,-3.599773 -1.052587,-1.8512869 -1.844633,-3.4351356 -1.760104,-3.5196673 0.354476,-0.3544729 7.0056,7.0442903 8.363196,9.3032843 4.018947,6.687399 4.157176,7.04642 4.317629,11.214153 0.134097,3.483123 0.05861,4.038814 -0.804838,5.924833 -1.402308,3.063039 -3.552164,5.148561 -9.296215,9.01801 -5.196493,3.500597 -9.160899,6.940138 -11.779184,10.219693 l -1.430565,1.791872 z"
       id="path30"
       inkscape:export-xdpi="96"
       inkscape:export-ydpi="96" />
    <path
       style="fill:#d40000;stroke-width:0.0892857"
       d=""
       id="path36"
       transform="scale(0.26458333)" />
    <path
       style="fill:#d40000;stroke-width:0.0892857"
       d=""
       id="path38"
       transform="scale(0.26458333)" />
    <path
       style="fill:#2b0000;stroke-width:0.0668173"
       d="m 38.568442,215.59513 c -2.781846,-0.14974 -6.313947,-0.84503 -8.631012,-1.699 -0.988314,-0.36424 -2.353938,-1.04282 -3.028571,-1.50488 -0.330551,-0.2264 -0.819085,-0.64349 -1.085631,-0.92687 -1.324108,-1.40773 -1.283028,-2.77884 0.125417,-4.18605 1.240732,-1.23965 2.403521,-1.87609 4.908586,-2.68666 1.574137,-0.50934 2.955996,-0.85186 3.969437,-0.98388 1.27598,-0.16623 4.692045,-0.25245 8.179445,-0.20645 5.414494,0.0714 6.584884,0.21927 9.527162,1.20359 3.000187,1.00369 4.963535,2.28444 5.655304,3.68912 0.207532,0.4214 0.224624,0.50477 0.224624,1.09552 0,0.60686 -0.01307,0.66587 -0.256728,1.15925 -1.172239,2.37365 -5.940737,4.25091 -12.405164,4.88366 -2.342076,0.22925 -4.878575,0.28669 -7.182869,0.16265 z m 6.715146,-1.59764 c 2.473436,-0.16588 3.930854,-0.37187 5.678236,-0.80256 3.147277,-0.77574 5.154597,-1.79928 5.77918,-2.94685 0.158001,-0.2903 0.195403,-0.4411 0.196684,-0.79299 0.0021,-0.56698 -0.173673,-0.95151 -0.676429,-1.48013 -0.495908,-0.52142 -0.986904,-0.85334 -1.91458,-1.29429 -2.078062,-0.98776 -5.086403,-1.62901 -9.296951,-1.9817 -1.541486,-0.12913 -5.850014,-0.10915 -7.450138,0.0345 -2.969743,0.26668 -5.180635,0.69227 -7.179911,1.38211 -2.01072,0.6938 -3.430914,1.60563 -3.900107,2.50405 -0.231124,0.44257 -0.246097,1.13476 -0.03324,1.5368 0.32124,0.60678 1.144152,1.29781 2.137577,1.795 1.544549,0.77303 4.34296,1.54099 6.71141,1.84179 0.921132,0.11699 2.464328,0.23329 3.968118,0.29906 0.927631,0.0406 4.900716,-0.0224 5.980155,-0.0948 z"
       id="path52"
       inkscape:export-xdpi="96"
       inkscape:export-ydpi="96" />
    <path
       style="fill:#2b0000;stroke-width:0.252538"
       d=""
       id="path58"
       transform="scale(0.26458333)" />
    <path
       style="fill:#2b0000;stroke-width:0.0668173"
       d="m 38.568442,262.29986 c -0.440995,-0.0304 -0.99725,-0.0874 -1.236122,-0.12664 -0.506401,-0.0831 -1.714346,-0.44285 -1.765645,-0.52585 -0.05771,-0.0934 0.325994,-0.61792 0.937007,-1.28091 1.167683,-1.26702 2.026805,-2.80701 2.525095,-4.52627 0.526247,-1.81572 0.998533,-4.51982 1.181121,-6.7626 0.129302,-1.58824 0.01217,-2.45116 -0.399693,-2.9445 -0.162444,-0.19459 -0.229614,-0.22645 -0.464411,-0.22029 -0.358037,0.009 -0.66974,0.24744 -0.957301,0.7311 -0.870183,1.4636 -1.590502,2.36969 -3.025627,3.80594 -1.657726,1.65902 -2.803977,2.51437 -3.974299,2.9657 -2.651025,1.02234 -5.592518,0.73587 -7.84688,-0.76422 -2.270694,-1.51095 -4.070842,-4.40925 -4.743963,-7.63796 -0.261258,-1.25315 -0.334776,-1.9723 -0.332475,-3.25228 0.0042,-2.30857 0.433198,-4.19236 1.392501,-6.11395 1.773102,-3.55172 4.550396,-4.89618 8.203336,-3.97115 0.958055,0.24261 1.763394,0.5511 3.105522,1.18959 1.212805,0.57696 2.082586,0.91084 2.372836,0.91084 0.08756,0 0.215895,-0.0415 0.285194,-0.0921 0.25577,-0.18703 -0.04142,-0.7484 -1.100329,-2.07848 -1.435739,-1.8034 -1.939724,-2.85511 -2.143325,-4.47265 -0.100048,-0.79485 -0.05154,-2.41826 0.09698,-3.24571 0.476477,-2.65457 2.22632,-4.53525 5.117553,-5.50022 1.245627,-0.41573 2.688383,-0.66834 4.476765,-0.7838 0.82661,-0.0534 0.823855,-0.0537 -0.26727,-0.0287 -2.468766,0.0566 -4.939686,0.75824 -6.637554,1.88494 -1.170961,0.77704 -2.085687,2.0255 -2.534285,3.4589 -0.294636,0.94145 -0.349982,1.42942 -0.344822,3.04019 0.0045,1.40173 0.0166,1.54725 0.179149,2.15191 0.30405,1.13105 0.856373,2.15576 1.803885,3.34673 0.257098,0.32315 0.452201,0.6028 0.433562,0.62144 -0.05817,0.0582 -0.971444,-1.04438 -1.427085,-1.72283 -0.493561,-0.73492 -0.834883,-1.51558 -1.037375,-2.37265 -0.198553,-0.84041 -0.256458,-3.43079 -0.09455,-4.22983 0.258343,-1.27497 0.802081,-2.33359 1.675474,-3.26201 1.471889,-1.56463 3.52153,-2.52324 6.342433,-2.96634 0.836392,-0.13138 1.196439,-0.14768 3.278196,-0.14837 2.500489,-7.9e-4 3.113439,0.0497 4.789916,0.39478 2.403443,0.49473 4.262641,1.53613 5.363958,3.00452 0.309219,0.41228 0.787943,1.35843 0.932302,1.84261 0.405358,1.35954 0.21994,4.92361 -0.333007,6.40094 -0.222234,0.59376 -1.39065,3.04374 -1.415717,2.96854 -0.01082,-0.0324 0.119245,-0.35749 0.289028,-0.72232 1.158968,-2.49033 1.440881,-3.7596 1.44589,-6.50983 0.0033,-1.80293 -0.06603,-2.20274 -0.554077,-3.19577 -0.218176,-0.44393 -0.397325,-0.68168 -0.885719,-1.17542 -0.710592,-0.71837 -1.243092,-1.10942 -2.08221,-1.52908 -1.580603,-0.7905 -4.17698,-1.34087 -6.1472,-1.30308 -0.456746,0.009 -0.530745,0.0188 -0.23386,0.0317 4.127834,0.17981 6.780488,1.11178 8.546301,3.00259 1.090237,1.16741 1.430653,2.5219 1.274218,5.07001 -0.133996,2.18261 -0.425128,3.3567 -1.300877,5.24621 -1.06502,2.29788 -1.240232,2.69383 -1.430118,3.23182 -0.110244,0.31234 -0.20951,0.68264 -0.220591,0.8229 -0.01918,0.24278 -0.0099,0.25599 0.192886,0.27563 0.273863,0.0265 0.961954,-0.29167 1.925119,-0.89022 1.393537,-0.866 2.613695,-1.35295 3.875408,-1.54662 2.031217,-0.31178 4.281678,0.39797 5.644954,1.78032 1.222698,1.23979 2.071587,3.10192 2.51347,5.51356 0.16201,0.88418 0.201973,3.37011 0.07094,4.41318 -0.449633,3.57937 -2.024806,6.95887 -4.105164,8.80753 -2.688055,2.38868 -5.994723,2.75489 -9.469593,1.04875 -2.166835,-1.06389 -4.026826,-2.71881 -6.012238,-5.34934 -0.935983,-1.24011 -1.932529,-2.27179 -2.194424,-2.27179 -0.149905,0 -0.20764,0.0483 -0.29926,0.25056 -0.163148,0.36011 -0.15803,3.17335 0.0079,4.32643 0.368877,2.56384 0.868078,4.15308 1.970906,6.27451 0.885716,1.70379 1.777595,2.91841 2.75972,3.75838 0.329415,0.28173 0.575183,0.53351 0.546153,0.55951 -0.128074,0.11471 -1.261522,0.33428 -2.050301,0.39717 -0.997217,0.0795 -5.309363,0.0757 -6.488288,-0.006 z"
       id="path60"
       inkscape:export-xdpi="96"
       inkscape:export-ydpi="96" />
    <path
       style="fill:#2b0000;stroke-width:0.126269"
       d=""
       id="path66"
       transform="scale(0.26458333)" />
    <path
       style="fill:#2b0000;stroke-width:0.126269"
       d=""
       id="path68"
       transform="scale(0.26458333)" />
    <path
       style="fill:#2b0000;stroke-width:0.505076"
       d=""
       id="path80"
       transform="scale(0.26458333)" />
    <path
       style="fill:#2b0000;stroke-width:0.505076"
       d=""
       id="path82"
       transform="scale(0.26458333)" />
    <path
       style="fill:#2b0000;stroke-width:0.0892857"
       d=""
       id="path98"
       transform="scale(0.26458333)" />
    <path
       style="fill:#2b0000;stroke-width:0.0892857"
       d=""
       id="path106"
       transform="scale(0.26458333)" />
    <path
       style="fill:#2b0000;stroke-width:0.0631345"
       d=""
       id="path126"
       transform="scale(0.26458333)" />
    <path
       style="fill:#2b0000;stroke-width:0.252538"
       d=""
       id="path146"
       transform="scale(0.26458333)" />
    <path
       style="fill:#2b0000;stroke-width:0.0668173"
       d="m 161.61177,63.988522 c -1.01963,0.2436 -4.53629,0.67948 -6.09585,0.75557 -1.79258,0.0875 -3.02142,-0.042 -3.52519,-0.37135 -0.23834,-0.15583 -0.24287,-0.16416 -0.33576,-0.61786 -0.12343,-0.60292 -0.35652,-0.91668 -0.81915,-1.10267 l -0.33308,-0.13391 0.41381,-0.25085 c 0.2276,-0.13797 0.54076,-0.35945 0.6959,-0.49218 l 0.28208,-0.24134 -0.24241,0.38811 c -0.13332,0.21346 -0.24379,0.48511 -0.24549,0.60366 -0.004,0.27331 0.23558,0.91567 0.47615,1.27717 0.13785,0.20714 0.10868,0.11501 -0.11421,-0.3607 -0.43097,-0.91981 -0.40271,-1.07223 0.38278,-2.0647 0.89813,-1.1348 1.40933,-2.12864 1.97894,-3.847346 0.32896,-0.992579 0.77609,-2.93947 0.91298,-3.975327 0.15156,-1.146776 0.3875,-3.954711 0.33127,-3.942384 -0.0287,0.0063 -0.34791,0.410993 -0.70948,0.899363 -1.20364,1.625772 -2.23537,2.715747 -3.68589,3.893995 -0.88163,0.716142 -2.24414,1.57762 -2.87016,1.814722 -0.90297,0.342 -2.05169,0.490024 -3.91114,0.503988 -2.66186,0.02 -3.29346,-0.11776 -4.81691,-1.050583 -1.77539,-1.087086 -3.0775,-2.437723 -4.18881,-4.344935 -1.94007,-3.329519 -2.60996,-7.397464 -1.84352,-11.194864 0.237,-1.174234 0.55051,-2.080485 1.28928,-3.726823 0.3325,-0.740955 0.59925,-1.371227 0.59279,-1.400607 -0.006,-0.02938 -0.43904,0.03167 -0.96128,0.135676 -0.52224,0.104 -0.97658,0.175975 -1.00964,0.159941 -0.0938,-0.0455 0.16145,-0.317111 1.10971,-1.180706 1.28569,-1.170898 1.93401,-1.901537 1.97547,-2.226305 0.0349,-0.273171 -0.59657,-0.201779 -1.76605,0.199673 -0.44336,0.152194 -1.02807,0.329804 -1.29936,0.394685 -1.52532,0.364797 -3.17254,0.249261 -3.06883,-0.215249 0.0453,-0.202997 0.63127,-0.651823 1.35018,-1.034212 1.82174,-0.968983 4.27005,-2.786504 4.44187,-3.297454 l 0.0592,-0.17603 -0.1925,8.7e-5 c -0.25571,1.19e-4 -0.92644,0.247338 -1.85701,0.684456 -2.21511,1.040508 -3.73098,1.506752 -5.26293,1.618739 -0.2496,0.01826 -0.47576,-0.0013 -0.50255,-0.04356 -0.0268,-0.0422 0.0616,-0.223022 0.19653,-0.40182 0.27937,-0.370295 0.32475,-0.499316 0.20515,-0.583192 -0.0462,-0.03238 -0.41747,-0.0786 -0.8251,-0.102727 -0.79629,-0.04712 -1.39032,-0.196342 -1.73268,-0.435253 -0.25807,-0.180086 -0.21494,-0.222543 0.24263,-0.238866 0.74646,-0.02662 3.04092,-0.974005 4.67434,-1.930032 1.06568,-0.623729 1.31393,-0.837951 1.21832,-1.051314 -0.13,-0.290129 -0.41141,-0.275524 -1.98575,0.103071 -1.69018,0.406451 -3.54208,0.592963 -4.77845,0.481254 -0.44549,-0.04025 -0.87913,-0.179809 -0.9624,-0.309727 -0.0767,-0.119737 0.51748,-0.282226 1.10165,-0.301249 1.08447,-0.03531 1.72252,-0.116287 1.9239,-0.244163 0.17358,-0.110223 0.18181,-0.136861 0.0879,-0.284718 -0.11912,-0.187611 -0.4407,-0.289362 -1.90783,-0.60366 -0.93975,-0.201319 -1.42659,-0.385747 -1.39475,-0.52837 0.0287,-0.128353 0.92499,-0.151326 2.23086,-0.05718 1.52991,0.110294 2.04711,0.08311 2.47422,-0.130046 0.5799,-0.289406 1.25708,-1.14718 1.15322,-1.460764 -0.13233,-0.399532 -0.49923,-0.523624 -1.66849,-0.564311 -0.73439,-0.02556 -1.09519,-0.09941 -1.18625,-0.242814 -0.0922,-0.145148 0.11192,-0.423428 0.79109,-1.078693 0.96601,-0.931992 1.32702,-1.561044 1.05825,-1.843942 -0.0694,-0.07306 -0.13289,-0.05506 -0.3577,0.101407 -0.15032,0.104627 -0.65006,0.453004 -1.11053,0.774176 -0.90765,0.633077 -1.66734,1.026866 -2.51371,1.302988 -0.27015,0.08813 -0.55025,0.147058 -0.62243,0.130943 -0.11351,-0.02535 -0.11339,-0.04812 7.9e-4,-0.168551 0.0727,-0.07659 0.45011,-0.318301 0.83874,-0.537141 0.38864,-0.218839 1.03416,-0.583202 1.4345,-0.809694 0.7669,-0.433877 1.74703,-1.176316 1.92397,-1.457393 0.14292,-0.227037 0.0322,-0.33383 -0.26719,-0.257662 -0.14274,0.03632 -0.84651,0.330284 -1.56394,0.653256 -2.12296,0.95572 -3.41808,1.34312 -4.97912,1.489377 -0.74866,0.07015 -1.44068,0.0076 -1.6249,-0.146839 -0.0585,-0.04905 -0.13337,-0.196262 -0.16636,-0.327141 -0.033,-0.130879 -0.12532,-0.303739 -0.20516,-0.384133 -0.36223,-0.364731 -1.50969,-0.554148 -3.53636,-0.583769 -1.87114,-0.02735 -2.96959,-0.157599 -2.92728,-0.347114 0.0271,-0.121174 1.02145,-0.288007 2.71577,-0.455639 2.45442,-0.242835 4.16538,-0.583364 6.19424,-1.232818 1.61514,-0.51702 2.75126,-1.085909 2.90445,-1.454338 0.21793,-0.524132 -0.79044,-0.376635 -5.74177,0.839861 -5.17632,1.271776 -5.84055,1.31979 -8.98717,0.649658 -0.89396,-0.190386 -1.6219,-0.361751 -1.61764,-0.380815 0.004,-0.01908 0.76599,-0.10532 1.69274,-0.191685 1.61512,-0.150511 2.10801,-0.261636 1.98762,-0.448117 -0.0757,-0.117208 -0.68335,-0.409866 -1.57579,-0.758886 -0.46583,-0.182181 -0.8434,-0.347218 -0.83904,-0.366744 0.0204,-0.09125 1.42068,-0.11453 4.06605,-0.06759 4.05199,0.07191 5.03495,0.01098 5.60291,-0.347274 l 0.31083,-0.196061 -0.19045,-0.294606 c -0.10475,-0.162033 -0.16948,-0.307916 -0.14386,-0.324188 0.092,-0.0584 0.84064,-0.106207 1.76924,-0.11298 2.51477,-0.01834 6.99631,0.248116 9.66498,0.574643 2.09136,0.255892 5.03359,1.084744 6.34765,1.788192 0.46451,0.248663 0.57504,0.385641 0.33357,0.413409 -0.15962,0.01836 -0.15963,0.01979 -2.7e-4,0.03731 0.17977,0.01979 0.21841,-0.04651 0.14272,-0.244851 -0.0932,-0.244253 2.85028,1.605915 4.00903,2.519921 0.76305,0.601882 0.95855,0.944925 1.04341,1.830858 0.0568,0.593087 0.0487,1.01894 -0.013,0.680858 -0.15709,-0.860883 -0.25171,-1.1054 -0.65117,-1.682748 -0.33656,-0.486441 -0.49617,-0.655502 -1.00517,-1.064696 -0.67006,-0.538681 -1.63813,-1.171088 -2.07787,-1.3574 -0.28541,-0.120925 -0.62282,-0.133273 -0.78734,-0.02881 -0.048,0.03047 -0.12901,0.206119 -0.18006,0.390332 -0.0903,0.325729 -0.0973,0.333685 -0.25679,0.28964 -0.18868,-0.05211 -0.18,-0.0961 0.0908,-0.460209 0.092,-0.123716 0.15807,-0.261837 0.14682,-0.30693 -0.0283,-0.113225 -0.62955,-0.263501 -1.9694,-0.492193 -1.21557,-0.207481 -1.53632,-0.333156 -0.49068,-0.192257 0.59433,0.08008 2.00539,0.157311 1.7102,0.0936 -0.0757,-0.01633 -0.47751,-0.0602 -0.89298,-0.09749 -0.41547,-0.03729 -1.3574,-0.146881 -2.09319,-0.243539 -2.15083,-0.282543 -3.94359,-0.381254 -4.36806,-0.2405 -0.35843,0.118856 -0.0612,0.252142 1.13432,0.508732 0.65522,0.140624 1.21646,0.295299 1.24721,0.343726 0.0551,0.08679 0.0147,0.132911 -0.48196,0.549397 -0.43252,0.362741 -0.22418,0.601056 0.63639,0.727924 1.04949,0.154718 3.84653,0.243012 4.74889,0.149908 0.71736,-0.07401 0.79408,-0.116999 0.8844,-0.495462 0.0428,-0.179435 0.11686,-0.372761 0.16452,-0.429612 0.20255,-0.241596 0.80071,-0.0403 1.74015,0.585613 1.5483,1.031566 2.25144,1.806202 2.52115,2.777487 0.16936,0.609899 0.20364,0.953389 0.2325,2.329585 0.0407,1.940124 0.26416,3.564242 0.65361,4.750107 0.38786,1.181039 0.65175,1.40435 1.38058,1.168292 1.15725,-0.37482 2.66549,-1.493706 5.23736,-3.885314 2.22436,-2.068449 3.85565,-3.811677 4.90638,-5.243047 0.33592,-0.457613 0.62587,-0.828648 0.64432,-0.824529 0.0185,0.0041 0.37248,0.486654 0.7867,1.072298 1.10552,1.56301 2.0853,2.678396 3.8533,4.386644 2.69381,2.602762 5.42885,4.732689 6.21269,4.838165 0.71877,0.09672 1.25964,-0.892299 1.69741,-3.103829 0.16217,-0.819272 0.23904,-1.428568 0.5158,-4.088316 0.20097,-1.931445 0.45505,-2.683298 1.17754,-3.484499 0.33133,-0.367421 0.49395,-0.486216 1.77632,-1.297627 2.49207,-1.576848 4.26002,-2.376789 6.07977,-2.750905 2.55492,-0.525251 15.04806,-1.43292 15.25421,-1.108265 0.0482,0.07598 0.0131,0.08924 -0.31918,0.120575 -0.82989,0.07824 -0.85668,0.666335 -0.0433,0.950548 1.1232,0.392472 3.03788,0.461126 6.29102,0.225578 1.90545,-0.137967 3.03558,-0.185213 3.02244,-0.126359 -0.016,0.07179 -1.0406,0.475702 -2.51315,0.990745 -0.76585,0.267869 -1.44579,0.501206 -1.51097,0.518528 -0.34285,0.09111 0.17997,0.126759 2.58802,0.176485 1.4548,0.03004 2.64145,0.07093 2.637,0.09087 -0.0167,0.07473 -1.86065,0.613661 -2.41134,0.704757 -2.22902,0.368726 -5.55942,0.01844 -9.01181,-0.947854 -1.96903,-0.551116 -4.0617,-1.025477 -4.59374,-1.041296 -0.28193,-0.0084 -0.46612,0.02949 -0.63009,0.129548 -0.22738,0.138766 -0.22954,0.145515 -0.11498,0.363865 0.28791,0.548802 2.31045,1.305743 5.11053,1.912628 2.06767,0.448143 3.45406,0.619308 5.46096,0.674227 0.59808,0.01638 1.21527,0.06282 1.37153,0.103227 l 0.2841,0.07348 -0.25069,0.103804 c -0.38186,0.15812 -1.35039,0.324689 -3.21107,0.552241 -2.95761,0.361704 -3.61319,0.527569 -3.68249,0.931683 -0.0167,0.09771 -0.0866,0.213275 -0.15515,0.25682 -0.19945,0.126646 -1.09053,0.185785 -1.86233,0.1236 -1.29255,-0.10414 -2.15341,-0.336031 -3.7929,-1.021691 -0.8261,-0.345488 -1.40349,-0.504912 -1.48053,-0.408792 -0.0969,0.120849 0.32081,0.69755 0.77583,1.071232 0.22421,0.184126 0.82067,0.580065 1.32547,0.879859 0.5048,0.299796 0.89627,0.558771 0.86993,0.575497 -0.10746,0.06823 -1.1996,-0.281299 -1.73529,-0.55536 -0.31533,-0.161322 -0.98366,-0.586637 -1.48519,-0.945144 -0.98616,-0.70494 -1.46191,-0.948024 -1.63738,-0.836608 -0.0947,0.06013 -0.0832,0.117549 0.0818,0.409922 0.144,0.255045 0.42342,0.559207 1.11839,1.217411 0.77653,0.735436 0.93058,0.907116 0.95198,1.060932 0.0226,0.162192 -0.002,0.196342 -0.21379,0.293965 -0.13162,0.06075 -0.64245,0.163547 -1.13518,0.228439 -1.0611,0.139747 -1.49042,0.311404 -1.56016,0.623803 -0.0846,0.379134 0.37543,0.836512 1.20082,1.193781 0.78804,0.341104 1.5036,0.392491 3.2326,0.23214 1.06145,-0.09844 1.7624,-0.03513 1.71988,0.155326 -0.037,0.165788 -0.6644,0.380313 -1.73525,0.593342 -1.07881,0.214614 -1.53124,0.427315 -1.42204,0.66856 0.0915,0.202064 0.4926,0.363217 1.58531,0.636878 0.52067,0.1304 0.94245,0.256008 0.93729,0.279133 -0.0151,0.06749 -2.30157,0.08036 -3.22468,0.01815 -0.46484,-0.03133 -1.40939,-0.171542 -2.09899,-0.311592 -1.21518,-0.24679 -1.9571,-0.318095 -2.01733,-0.193881 -0.10161,0.209555 0.64148,0.84423 1.90871,1.630238 1.19723,0.742593 2.10172,1.16754 2.80287,1.316845 0.4844,0.10315 0.60039,0.154209 0.66826,0.294177 0.0724,0.149341 0.0596,0.182242 -0.10821,0.278304 -0.65967,0.377574 -3.32669,-0.511966 -7.09759,-2.367272 -1.79408,-0.882697 -2.90228,-1.367859 -3.41132,-1.493443 -0.68369,-0.168672 -0.8224,0.128513 -0.38297,0.82055 0.15432,0.24303 0.30258,0.365133 0.81944,0.674893 1.1597,0.695011 3.42694,1.653517 6.6453,2.809394 1.0478,0.376314 1.90141,0.700648 1.89693,0.720741 -0.005,0.02008 -0.3718,0.04292 -0.81624,0.05073 -1.40483,0.02468 -2.48485,-0.298755 -4.61543,-1.38217 -0.49898,-0.253739 -1.14954,-0.55299 -1.44569,-0.665007 -1.12891,-0.427 -0.9873,0.06437 0.32733,1.135774 0.7181,0.585248 1.65218,1.178375 3.73403,2.371061 0.79066,0.45297 0.96104,0.667973 0.75765,0.956069 -0.20832,0.295064 -0.52442,0.552572 -0.73013,0.594792 -0.27282,0.05599 -1.37509,-0.178488 -3.07065,-0.653193 -0.94251,-0.263874 -1.52447,-0.391128 -1.57337,-0.34404 -0.10289,0.09907 0.34593,0.782767 0.92633,1.411097 0.49928,0.54052 1.34659,1.717307 1.27103,1.765284 -0.0896,0.0569 -0.87154,-0.160803 -1.68974,-0.470466 -0.87961,-0.332899 -1.32934,-0.461868 -1.41684,-0.406308 -0.11168,0.07092 0.1254,0.500319 0.67846,1.228842 1.0273,1.353219 1.41794,2.059733 1.84419,3.335414 0.54637,1.635193 0.75848,3.672692 0.62675,6.020742 -0.22492,4.009276 -1.55691,7.155682 -3.97391,9.387125 -0.62389,0.575985 -2.1647,1.552893 -2.96264,1.878367 -1.24065,0.506058 -2.9111,0.905156 -3.86811,0.924155 -0.77777,0.01545 -1.68394,-0.118993 -2.75038,-0.408038 -2.96847,-0.804571 -4.02703,-1.513644 -6.91685,-4.633248 -0.69625,-0.75162 -1.28448,-1.370727 -1.30717,-1.375793 -0.0672,-0.015 -0.065,1.58284 0.003,2.40353 0.1414,1.698622 0.70432,3.626779 1.60622,5.501762 0.47336,0.984075 1.55465,2.686325 2.14959,3.384035 0.82227,0.96432 1.31889,1.60564 1.37534,1.77607 0.0471,0.1421 0.0292,0.17652 -0.12009,0.23077 -1.34836,0.49009 -4.92258,0.87573 -7.64655,0.82503 -1.09381,-0.0204 -1.60757,-0.10011 -1.89454,-0.2941 -0.10259,-0.0694 -0.16657,-0.0925 -0.14218,-0.0514 0.15857,0.26717 0.69129,0.38527 1.83873,0.40763 2.04021,0.0398 3.65116,-0.0533 5.49704,-0.31771 1.82669,-0.26164 2.53158,-0.45451 2.56309,-0.70131 0.0164,-0.12868 -0.33123,-0.6517 -0.87864,-1.32183 -0.12469,-0.15265 -0.0417,-0.10113 0.26858,0.16666 0.24698,0.21319 0.56708,0.54078 0.71133,0.72799 0.2244,0.29122 0.25423,0.36083 0.20665,0.48219 -0.0761,0.19408 -0.27395,0.30397 -0.75364,0.41857 z m 14.48629,-34.880066 c 0.0497,-0.222774 -0.18069,-0.518232 -0.77153,-0.989278 -0.62492,-0.498226 -1.05066,-0.709699 -1.31821,-0.65479 -0.16555,0.03397 -0.19363,0.069 -0.22432,0.27972 -0.0317,0.21776 -0.008,0.278558 0.25099,0.633378 0.31575,0.433202 0.71756,0.682138 1.44929,0.897858 0.39449,0.116306 0.56064,0.07113 0.61378,-0.166888 z m 2.65629,-3.796115 c 0.0188,-0.414208 -0.55251,-0.981869 -1.16858,-1.161203 -0.44193,-0.128641 -1.04762,-0.105376 -1.08042,0.0415 -0.0478,0.213995 1.37397,1.295451 1.8398,1.39945 0.23937,0.05344 0.39905,-0.05572 0.4092,-0.279747 z m 10.56319,-8.296854 c 0.004,-0.29686 -0.44846,-0.620398 -1.5432,-1.102887 -1.1309,-0.498425 -2.07948,-0.68852 -2.40483,-0.481931 -0.21541,0.136782 -0.11894,0.284078 0.38767,0.591926 0.81581,0.495737 3.27702,1.355151 3.49128,1.219097 0.0365,-0.0232 0.0676,-0.124997 0.0691,-0.226205 z m -7.3477,3.369243 c -0.13774,-0.115474 -0.51396,-0.09449 -0.72658,0.04052 -0.22401,0.14224 -0.17549,0.212024 0.16798,0.241586 0.52237,0.04496 0.78844,-0.08941 0.5586,-0.28211 z m -4.00406,-2.416286 c -0.01,-0.40454 -2.82304,-0.46768 -3.44838,-0.0774 -0.21663,0.135205 -0.25182,0.282761 -0.11778,0.493856 0.1499,0.236066 1.09483,0.422907 1.76875,0.349734 1.0502,-0.114025 1.80541,-0.435954 1.79741,-0.766194 z m 2.30823,-1.924613 c -0.10618,-0.167214 -0.58345,-0.299532 -1.25662,-0.34839 -0.7197,-0.05223 -0.9551,-0.12232 -0.66678,-0.198528 0.0778,-0.02056 0.21775,-0.108651 0.31103,-0.195749 0.1462,-0.136525 0.15541,-0.180681 0.0668,-0.320233 -0.19094,-0.300699 -0.73359,-0.311391 -2.42458,-0.04777 -1.81016,0.282196 -2.19975,0.369043 -2.49418,0.556003 -0.60776,0.385916 -0.49529,0.930659 0.28966,1.402935 0.77335,0.465291 1.44004,0.489101 1.77699,0.06346 0.20939,-0.264501 0.24054,-0.271653 0.74613,-0.171278 0.52431,0.104095 1.47308,0.02927 2.49609,-0.196847 0.66143,-0.146201 1.23612,-0.416571 1.15546,-0.543605 z m 1.67455,-1.576134 c -0.19451,-0.430974 -2.63678,-0.246859 -2.69422,0.20311 -0.0215,0.168453 0.13062,0.258742 0.54487,0.323379 1.00291,0.156491 2.31279,-0.164364 2.14935,-0.526489 z m -43.88058,14.101932 c 0.39927,-0.516456 0.15685,-0.769427 -0.49981,-0.521576 -0.44699,0.168714 -1.23184,0.726017 -1.43515,1.019067 -0.25302,0.364699 -0.13136,0.722034 0.23409,0.687567 0.25379,-0.02395 1.44469,-0.853678 1.70087,-1.185058 z m -0.79834,-2.630191 c 0.43777,-0.383699 0.74374,-0.824691 0.86873,-1.252096 0.0936,-0.31999 0.0171,-0.580271 -0.1699,-0.577995 -0.0521,5.29e-4 -0.65804,0.350504 -1.34654,0.777488 -0.6885,0.426985 -2.00659,1.181542 -2.92909,1.676792 -1.60765,0.863076 -3.21385,1.839129 -3.51114,2.133647 -0.20068,0.198814 -0.18782,0.407099 0.0263,0.425964 0.39969,0.03521 1.78047,-0.44998 3.75181,-1.318348 0.68035,-0.299688 1.33178,-0.591952 1.44762,-0.649475 0.48419,-0.240437 1.52337,-0.919001 1.8622,-1.215977 z m -1.9843,-0.877208 c 0.0335,-0.261728 -0.17658,-0.558723 -0.43613,-0.616669 -0.39358,-0.08787 -1.18265,0.425108 -1.33058,0.865007 l -0.0572,0.170029 0.21111,0.07433 c 0.22412,0.07891 0.81222,0.07987 1.10672,0.0019 0.25661,-0.06802 0.47936,-0.285676 0.50606,-0.494506 z m 2.19419,-6.541696 c 0.14483,-0.222252 -0.0336,-0.479639 -0.44605,-0.643493 -0.62083,-0.246631 -2.38933,-0.263956 -3.32107,-0.03253 -1.0745,0.266883 -1.00768,0.610394 0.16907,0.869101 0.37384,0.08219 0.79247,0.215778 0.93028,0.296862 0.28099,0.165331 0.54223,0.197911 1.13736,0.141851 0.76791,-0.07234 1.3123,-0.297074 1.53041,-0.631788 z m -6.00069,2.271141 c 0.0876,-0.118004 -0.0574,-0.342624 -0.28883,-0.447362 -0.42296,-0.191432 -1.20793,0.01198 -1.24768,0.323315 -0.046,0.360249 0.88731,0.560888 1.34445,0.289026 0.0685,-0.04075 0.15494,-0.114986 0.19205,-0.164979 z m 0.68369,-1.488791 c -0.0889,-0.139965 -0.49678,-0.161687 -0.77746,-0.0414 -0.31974,0.137019 -0.1953,0.265247 0.26604,0.274142 0.43329,0.0084 0.61267,-0.07328 0.51142,-0.23274 z m -5.2433,-3.54711 c 0.12039,-0.539221 -3.28415,0.498758 -4.55641,1.38916 -0.34708,0.242906 -0.37777,0.281318 -0.3225,0.403619 0.0839,0.185735 0.48359,0.1402 1.41238,-0.160922 1.96474,-0.636987 3.39471,-1.310137 3.46653,-1.631857 z"
       id="path148"
       inkscape:export-xdpi="96"
       inkscape:export-ydpi="96" />
    <path
       style="fill:#2b0000;stroke-width:0.126269"
       d=""
       id="path156"
       transform="scale(0.26458333)" />
    <path
       style="fill:#2b0000;stroke-width:0.126269"
       d=""
       id="path170"
       transform="scale(0.26458333)" />
    <path
       style="fill:#2b0000;stroke-width:0.126269"
       d=""
       id="path178"
       transform="scale(0.26458333)" />
    <path
       style="fill:#2b0000;stroke-width:0.126269"
       d=""
       id="path180"
       transform="scale(0.26458333)" />
    <path
       style="fill:#d40000;fill-opacity:1;stroke-width:0.377976"
       d="m 177.20939,251.03815 c -2.20097,-2.46202 -3.82261,-5.33126 -3.83554,-6.7864 -0.0126,-1.41954 1.42289,-2.77304 2.96025,-2.79115 0.54362,-0.006 1.18738,-0.13987 1.43058,-0.29659 0.4991,-0.32163 1.11045,-12.18613 0.62777,-12.18326 -0.15839,0.001 -4.97238,4.66449 -10.69777,10.36346 -5.72539,5.69897 -10.85951,10.60334 -11.40917,10.89861 -0.91679,0.49248 -1.11785,0.45577 -2.4332,-0.44427 -3.02464,-2.06964 -21.39672,-21.15771 -21.40312,-22.23724 -0.004,-0.63503 9.45019,-10.85199 16.44968,-17.7773 3.91316,-3.87167 5.933,-5.61042 6.52149,-5.61391 0.6153,-0.004 3.86678,3.00113 11.68425,10.79772 l 10.8317,10.80278 0.27732,-1.51358 c 0.15254,-0.83247 0.27528,-3.51215 0.27278,-5.95485 l -0.005,-4.44127 -3.02376,0.0179 -3.02375,0.0179 -0.0295,-5.95306 c -0.0275,-5.55294 0.24732,-7.48413 0.96429,-6.7756 0.16343,0.1615 0.31686,2.96219 0.34095,6.22375 l 0.0438,5.93011 2.3904,0.0991 2.39041,0.0991 -0.12739,-5.79305 c -0.0756,-3.43609 0.0285,-6.07554 0.25577,-6.48735 0.37038,-0.67113 0.39276,-0.6709 0.67071,0.007 0.15815,0.38563 0.27609,3.29511 0.26209,6.46553 l -0.0255,5.76439 2.51885,-0.0149 2.51885,-0.0149 -0.12366,-5.76351 c -0.068,-3.16992 -0.10288,-5.97624 -0.0775,-6.23625 0.0678,-0.69367 0.68016,-0.57974 0.98449,0.18315 0.30194,0.75692 0.33948,11.86635 0.0411,12.16828 -0.10841,0.1097 -1.43665,0.26943 -2.95163,0.35494 l -2.75451,0.15547 -0.16636,18.76705 c -0.0915,10.32188 -0.29203,18.99521 -0.44562,19.27407 -0.20224,0.36719 -0.7276,0.005 -1.90509,-1.31165 z"
       id="path212"
       inkscape:export-xdpi="96"
       inkscape:export-ydpi="96" />
  </g>
</svg>
